<svg width="82" height="82" viewBox="0 0 82 82" fill="none" xmlns="http://www.w3.org/2000/svg">
<path d="M0 40C0 21.1438 0 11.7157 5.85786 5.85786C11.7157 0 21.1438 0 40 0H42C60.8562 0 70.2843 0 76.1421 5.85786C82 11.7157 82 21.1438 82 40V42C82 60.8562 82 70.2843 76.1421 76.1421C70.2843 82 60.8562 82 42 82H40C21.1438 82 11.7157 82 5.85786 76.1421C0 70.2843 0 60.8562 0 42V40Z" fill="#F8D57E" fill-opacity="0.2"/>
<path opacity="0.2" d="M36.8 52.55L29.45 45.2L26.218 54.1086C26.1286 54.3424 26.1088 54.597 26.1611 54.8417C26.2133 55.0865 26.3352 55.3109 26.5122 55.4879C26.6891 55.6648 26.9135 55.7868 27.1583 55.839C27.403 55.8912 27.6576 55.8714 27.8914 55.782L36.8 52.55Z" fill="#F8D57E"/>
<path opacity="0.2" d="M36.0102 29.0385C36.2157 28.9934 36.4294 29.0005 36.6313 29.06C36.8333 29.1196 37.0171 29.2298 37.1654 29.3793H37.1664L52.6205 44.8344C52.7701 44.9827 52.8803 45.1665 52.9398 45.3686C52.9993 45.5705 53.0064 45.7841 52.9613 45.9897C52.9161 46.1955 52.8199 46.3868 52.6811 46.5453C52.5423 46.7038 52.3654 46.825 52.1674 46.8969L45.4779 49.3276L32.6713 36.5209L35.1029 29.8325C35.1749 29.6345 35.296 29.4576 35.4545 29.3188C35.613 29.18 35.8044 29.0837 36.0102 29.0385Z" fill="#F8D57E" stroke="#F8D57E" stroke-width="0.125"/>
<path d="M26.218 54.1086L35.0445 29.8109C35.1201 29.603 35.247 29.4176 35.4134 29.2718C35.5798 29.1261 35.7804 29.0248 35.9965 28.9773C36.2125 28.9298 36.4371 28.9377 36.6493 29.0003C36.8615 29.0629 37.0544 29.178 37.2102 29.3351L52.6648 44.7898C52.8219 44.9456 52.9371 45.1385 52.9997 45.3507C53.0622 45.5629 53.0702 45.7874 53.0227 46.0035C52.9752 46.2196 52.8739 46.4201 52.7282 46.5866C52.5824 46.753 52.397 46.8799 52.1891 46.9554L27.8914 55.782C27.6576 55.8714 27.403 55.8911 27.1583 55.8389C26.9135 55.7867 26.6891 55.6648 26.5122 55.4878C26.3352 55.3109 26.2133 55.0865 26.1611 54.8417C26.1088 54.597 26.1286 54.3423 26.218 54.1086V54.1086Z" stroke="#F8D57E" stroke-width="2" stroke-linecap="round" stroke-linejoin="round"/>
<path d="M47.5625 31.8125C47.5625 31.8125 47.5625 27.875 51.5 27.875C55.4375 27.875 55.4375 23.9375 55.4375 23.9375" stroke="#F8D57E" stroke-width="2" stroke-linecap="round" stroke-linejoin="round"/>
<path d="M36.8 52.55L29.45 45.2" stroke="#F8D57E" stroke-width="2" stroke-linecap="round" stroke-linejoin="round"/>
<path d="M43.625 22.625V26.5625" stroke="#F8D57E" stroke-width="2" stroke-linecap="round" stroke-linejoin="round"/>
<path d="M55.4375 38.375L58.0625 41" stroke="#F8D57E" stroke-width="2" stroke-linecap="round" stroke-linejoin="round"/>
<path d="M55.4375 33.125L59.375 31.8125" stroke="#F8D57E" stroke-width="2" stroke-linecap="round" stroke-linejoin="round"/>
<path d="M32.6 36.5375L45.4625 49.4" stroke="#F8D57E" stroke-width="2" stroke-linecap="round" stroke-linejoin="round"/>
</svg>
